{
  "accessors": [
    {
      "bufferView": 1,
      "componentType": 5126,
      "count": 528,
      "max": [
        0.8864399790763855,
        0.7350670099258423,
        0.10274799913167953
      ],
      "min": [
        -0.8860849738121033,
        -1.166712999343872,
        -1.7280089855194092
      ],
      "type": "VEC3"
    },
    {
      "bufferView": 1,
      "byteOffset": 6336,
      "componentType": 5126,
      "count": 528,
      "max": [
        1.0,
        1.0,
        1.0
      ],
      "min": [
        -1.0,
        -1.0,
        -1.0
      ],
      "type": "VEC3"
    },
    {
      "bufferView": 0,
      "componentType": 5125,
      "count": 3108,
      "type": "SCALAR"
    },
    {
      "bufferView": 1,
      "byteOffset": 12672,
      "componentType": 5126,
      "count": 1549,
      "max": [
        1.1060550212860107,
        0.8963329792022705,
        1.5644429922103882
      ],
      "min": [
        -1.1057000160217285,
        -1.2412049770355225,
        -0.9152809977531433
      ],
      "type": "VEC3"
    },
    {
      "bufferView": 1,
      "byteOffset": 31260,
      "componentType": 5126,
      "count": 1549,
      "max": [
        1.0,
        1.0,
        1.0
      ],
      "min": [
        -1.0,
        -1.0,
        -1.0
      ],
      "type": "VEC3"
    },
    {
      "bufferView": 0,
      "byteOffset": 12432,
      "componentType": 5125,
      "count": 9183,
      "type": "SCALAR"
    },
    {
      "bufferView": 1,
      "byteOffset": 49848,
      "componentType": 5126,
      "count": 16136,
      "max": [
        1.110949993133545,
        0.8351089954376221,
        1.5550700426101685
      ],
      "min": [
        -1.1105890274047852,
        -1.189512014389038,
        -0.854390025138855
      ],
      "type": "VEC3"
    },
    {
      "bufferView": 1,
      "byteOffset": 243480,
      "componentType": 5126,
      "count": 16136,
      "max": [
        1.0,
        0.9999685287475586,
        1.0
      ],
      "min": [
        -1.0,
        -1.0,
        -1.0
      ],
      "type": "VEC3"
    },
    {
      "bufferView": 0,
      "byteOffset": 49164,
      "componentType": 5125,
      "count": 96768,
      "type": "SCALAR"
    }
  ],
  "asset": {
    "extras": {
      "author": "Fishboe (https://sketchfab.com/ministephen)",
      "license": "CC-BY-4.0 (http://creativecommons.org/licenses/by/4.0/)",
      "source": "https://sketchfab.com/3d-models/seat-9e015597ad30450991d6ee1008c0eb34",
      "title": "Seat"
    },
    "generator": "Sketchfab-12.68.0",
    "version": "2.0"
  },
  "bufferViews": [
    {
      "buffer": 0,
      "byteLength": 436236,
      "name": "floatBufferViews",
      "target": 34963
    },
    {
      "buffer": 0,
      "byteLength": 437112,
      "byteOffset": 436236,
      "byteStride": 12,
      "name": "floatBufferViews",
      "target": 34962
    }
  ],
  "buffers": [
    {
      "byteLength": 873348,
      "uri": "scene.bin"
    }
  ],
  "materials": [
    {
      "doubleSided": true,
      "name": "metal",
      "pbrMetallicRoughness": {
        "baseColorFactor": [
          0.11036585365853659,
          0.11036585365853659,
          0.11036585365853659,
          1.0
        ],
        "roughnessFactor": 0.20560213414634143
      }
    },
    {
      "doubleSided": true,
      "name": "plastic",
      "pbrMetallicRoughness": {
        "baseColorFactor": [
          0.8286795887506713,
          0.771002871329086,
          0.6642178189782222,
          1.0
        ],
        "metallicFactor": 0.0,
        "roughnessFactor": 0.6995045731707317
      }
    },
    {
      "doubleSided": true,
      "name": "puffy_parts",
      "pbrMetallicRoughness": {
        "baseColorFactor": [
          0.0,
          0.04578915281126558,
          0.2482802702197365,
          1.0
        ],
        "metallicFactor": 0.1602515243902439,
        "roughnessFactor": 0.34584603658536583
      }
    }
  ],
  "meshes": [
    {
      "name": "Object_0",
      "primitives": [
        {
          "attributes": {
            "NORMAL": 1,
            "POSITION": 0
          },
          "indices": 2,
          "material": 0,
          "mode": 4
        }
      ]
    },
    {
      "name": "Object_1",
      "primitives": [
        {
          "attributes": {
            "NORMAL": 4,
            "POSITION": 3
          },
          "indices": 5,
          "material": 1,
          "mode": 4
        }
      ]
    },
    {
      "name": "Object_2",
      "primitives": [
        {
          "attributes": {
            "NORMAL": 7,
            "POSITION": 6
          },
          "indices": 8,
          "material": 2,
          "mode": 4
        }
      ]
    }
  ],
  "nodes": [
    {
      "children": [
        1
      ],
      "matrix": [
        1.0,
        0.0,
        0.0,
        0.0,
        0.0,
        2.220446049250313e-16,
        -1.0,
        0.0,
        0.0,
        1.0,
        2.220446049250313e-16,
        0.0,
        0.0,
        0.0,
        0.0,
        1.0
      ],
      "name": "Sketchfab_model"
    },
    {
      "children": [
        2,
        3,
        4
      ],
      "name": "seat.obj.cleaner.materialmerger.gles"
    },
    {
      "mesh": 0,
      "name": "Object_2"
    },
    {
      "mesh": 1,
      "name": "Object_3"
    },
    {
      "mesh": 2,
      "name": "Object_4"
    }
  ],
  "scene": 0,
  "scenes": [
    {
      "name": "Sketchfab_Scene",
      "nodes": [
        0
      ]
    }
  ]
}
