{
  "accessors": [
    {
      "bufferView": 2,
      "componentType": 5126,
      "count": 10706,
      "max": [
        11.40000057220459,
        7.199999809265137,
        14.5600004196167
      ],
      "min": [
        -11.40000057220459,
        0.0,
        -5.0
      ],
      "type": "VEC3"
    },
    {
      "bufferView": 2,
      "byteOffset": 128472,
      "componentType": 5126,
      "count": 10706,
      "max": [
        1.0,
        1.0,
        1.0
      ],
      "min": [
        -1.0,
        -1.0,
        -1.0
      ],
      "type": "VEC3"
    },
    {
      "bufferView": 1,
      "componentType": 5126,
      "count": 10706,
      "max": [
        0.9950246810913086,
        0.9997559785842896
      ],
      "min": [
        0.0,
        0.005732595920562744
      ],
      "type": "VEC2"
    },
    {
      "bufferView": 0,
      "componentType": 5125,
      "count": 18444,
      "type": "SCALAR"
    },
    {
      "bufferView": 2,
      "byteOffset": 256944,
      "componentType": 5126,
      "count": 16200,
      "max": [
        11.40000057220459,
        7.0,
        14.5600004196167
      ],
      "min": [
        -11.40000057220459,
        0.0,
        -5.0
      ],
      "type": "VEC3"
    },
    {
      "bufferView": 2,
      "byteOffset": 451344,
      "componentType": 5126,
      "count": 16200,
      "max": [
        1.0,
        1.0,
        1.0
      ],
      "min": [
        -1.0,
        -1.0,
        -1.0
      ],
      "type": "VEC3"
    },
    {
      "bufferView": 1,
      "byteOffset": 85648,
      "componentType": 5126,
      "count": 16200,
      "max": [
        0.9991827011108398,
        0.9997559785842896
      ],
      "min": [
        0.0,
        0.0008718371391296387
      ],
      "type": "VEC2"
    },
    {
      "bufferView": 0,
      "byteOffset": 73776,
      "componentType": 5125,
      "count": 26940,
      "type": "SCALAR"
    },
    {
      "bufferView": 2,
      "byteOffset": 645744,
      "componentType": 5126,
      "count": 35383,
      "max": [
        11.0,
        6.399999618530273,
        14.609999656677246
      ],
      "min": [
        -11.000000953674316,
        0.0,
        -3.1000003814697266
      ],
      "type": "VEC3"
    },
    {
      "bufferView": 2,
      "byteOffset": 1070340,
      "componentType": 5126,
      "count": 35383,
      "max": [
        1.0,
        1.0,
        1.0
      ],
      "min": [
        -1.0,
        -1.0,
        -1.0
      ],
      "type": "VEC3"
    },
    {
      "bufferView": 1,
      "byteOffset": 215248,
      "componentType": 5126,
      "count": 35383,
      "max": [
        1.0,
        0.9997559785842896
      ],
      "min": [
        0.0,
        0.00025451183319091797
      ],
      "type": "VEC2"
    },
    {
      "bufferView": 0,
      "byteOffset": 181536,
      "componentType": 5125,
      "count": 62502,
      "type": "SCALAR"
    },
    {
      "bufferView": 2,
      "byteOffset": 1494936,
      "componentType": 5126,
      "count": 504,
      "max": [
        11.200000762939453,
        7.199999809265137,
        14.399999618530273
      ],
      "min": [
        -11.200000762939453,
        0.017609775066375732,
        -5.0
      ],
      "type": "VEC3"
    },
    {
      "bufferView": 2,
      "byteOffset": 1500984,
      "componentType": 5126,
      "count": 504,
      "max": [
        1.0,
        0.0,
        1.0
      ],
      "min": [
        -1.0,
        -1.0,
        -1.0
      ],
      "type": "VEC3"
    },
    {
      "bufferView": 1,
      "byteOffset": 498312,
      "componentType": 5126,
      "count": 504,
      "max": [
        0.9879287481307983,
        0.9997559785842896
      ],
      "min": [
        0.025806427001953125,
        0.020592033863067627
      ],
      "type": "VEC2"
    },
    {
      "bufferView": 0,
      "byteOffset": 431544,
      "componentType": 5125,
      "count": 756,
      "type": "SCALAR"
    },
    {
      "bufferView": 2,
      "byteOffset": 1507032,
      "componentType": 5126,
      "count": 1294,
      "max": [
        11.200000762939453,
        7.199999809265137,
        14.5600004196167
      ],
      "min": [
        -11.200000762939453,
        0.0,
        -5.0
      ],
      "type": "VEC3"
    },
    {
      "bufferView": 2,
      "byteOffset": 1522560,
      "componentType": 5126,
      "count": 1294,
      "max": [
        1.0,
        1.0,
        1.0
      ],
      "min": [
        -1.0,
        -1.0,
        -1.0
      ],
      "type": "VEC3"
    },
    {
      "bufferView": 1,
      "byteOffset": 502344,
      "componentType": 5126,
      "count": 1294,
      "max": [
        0.9932346343994141,
        0.9997559785842896
      ],
      "min": [
        0.0,
        0.006102204322814941
      ],
      "type": "VEC2"
    },
    {
      "bufferView": 0,
      "byteOffset": 434568,
      "componentType": 5125,
      "count": 2172,
      "type": "SCALAR"
    }
  ],
  "asset": {
    "extras": {
      "author": "Adam Bajgar (https://sketchfab.com/adam.bajgar)",
      "license": "CC-BY-4.0 (http://creativecommons.org/licenses/by/4.0/)",
      "source": "https://sketchfab.com/3d-models/lowpoly-modern-auditorium-classroom-83418d6d74214aa4ad3ef716c9f959e3",
      "title": "LowPoly Modern Auditorium Classroom"
    },
    "generator": "Sketchfab-14.75.0",
    "version": "2.0"
  },
  "bufferViews": [
    {
      "buffer": 0,
      "byteLength": 443256,
      "name": "floatBufferViews",
      "target": 34963
    },
    {
      "buffer": 0,
      "byteLength": 512696,
      "byteOffset": 443256,
      "byteStride": 8,
      "name": "floatBufferViews",
      "target": 34962
    },
    {
      "buffer": 0,
      "byteLength": 1538088,
      "byteOffset": 955952,
      "byteStride": 12,
      "name": "floatBufferViews",
      "target": 34962
    }
  ],
  "buffers": [
    {
      "byteLength": 2494040,
      "uri": "scene.bin"
    }
  ],
  "extensionsUsed": [
    "KHR_materials_unlit"
  ],
  "images": [
    {
      "uri": "textures/Base_baseColor.png"
    }
  ],
  "materials": [
    {
      "extensions": {
        "KHR_materials_unlit": {}
      },
      "name": "Base",
      "pbrMetallicRoughness": {
        "baseColorTexture": {
          "index": 0
        },
        "metallicFactor": 0.0
      }
    },
    {
      "extensions": {
        "KHR_materials_unlit": {}
      },
      "name": "DarkBlue",
      "pbrMetallicRoughness": {
        "baseColorTexture": {
          "index": 0
        },
        "metallicFactor": 0.0
      }
    },
    {
      "extensions": {
        "KHR_materials_unlit": {}
      },
      "name": "LightBlue",
      "pbrMetallicRoughness": {
        "baseColorTexture": {
          "index": 0
        },
        "metallicFactor": 0.0
      }
    },
    {
      "emissiveFactor": [
        1.0,
        1.0,
        1.0
      ],
      "extensions": {
        "KHR_materials_unlit": {}
      },
      "name": "EmmWhite",
      "pbrMetallicRoughness": {
        "baseColorTexture": {
          "index": 0
        },
        "metallicFactor": 0.0
      }
    },
    {
      "extensions": {
        "KHR_materials_unlit": {}
      },
      "name": "Wood",
      "pbrMetallicRoughness": {
        "baseColorTexture": {
          "index": 0
        },
        "metallicFactor": 0.0
      }
    }
  ],
  "meshes": [
    {
      "name": "Object_0",
      "primitives": [
        {
          "attributes": {
            "NORMAL": 1,
            "POSITION": 0,
            "TEXCOORD_0": 2
          },
          "indices": 3,
          "material": 0,
          "mode": 4
        }
      ]
    },
    {
      "name": "Object_1",
      "primitives": [
        {
          "attributes": {
            "NORMAL": 5,
            "POSITION": 4,
            "TEXCOORD_0": 6
          },
          "indices": 7,
          "material": 1,
          "mode": 4
        }
      ]
    },
    {
      "name": "Object_2",
      "primitives": [
        {
          "attributes": {
            "NORMAL": 9,
            "POSITION": 8,
            "TEXCOORD_0": 10
          },
          "indices": 11,
          "material": 2,
          "mode": 4
        }
      ]
    },
    {
      "name": "Object_3",
      "primitives": [
        {
          "attributes": {
            "NORMAL": 13,
            "POSITION": 12,
            "TEXCOORD_0": 14
          },
          "indices": 15,
          "material": 3,
          "mode": 4
        }
      ]
    },
    {
      "name": "Object_4",
      "primitives": [
        {
          "attributes": {
            "NORMAL": 17,
            "POSITION": 16,
            "TEXCOORD_0": 18
          },
          "indices": 19,
          "material": 4,
          "mode": 4
        }
      ]
    }
  ],
  "nodes": [
    {
      "children": [
        1
      ],
      "matrix": [
        1.0,
        0.0,
        0.0,
        0.0,
        0.0,
        2.220446049250313e-16,
        -1.0,
        0.0,
        0.0,
        1.0,
        2.220446049250313e-16,
        0.0,
        0.0,
        0.0,
        0.0,
        1.0
      ],
      "name": "Sketchfab_model"
    },
    {
      "children": [
        2
      ],
      "name": "root"
    },
    {
      "children": [
        3
      ],
      "matrix": [
        1.0,
        0.0,
        0.0,
        0.0,
        0.0,
        2.220446049250313e-16,
        1.0,
        0.0,
        0.0,
        -1.0,
        2.220446049250313e-16,
        0.0,
        0.0,
        0.0,
        0.0,
        1.0
      ],
      "name": "GLTF_SceneRootNode"
    },
    {
      "children": [
        4,
        5,
        6,
        7,
        8
      ],
      "name": "BuildingArchitecture.001_0"
    },
    {
      "mesh": 0,
      "name": "Object_4"
    },
    {
      "mesh": 1,
      "name": "Object_5"
    },
    {
      "mesh": 2,
      "name": "Object_6"
    },
    {
      "mesh": 3,
      "name": "Object_7"
    },
    {
      "mesh": 4,
      "name": "Object_8"
    }
  ],
  "samplers": [
    {
      "magFilter": 9729,
      "minFilter": 9987,
      "wrapS": 10497,
      "wrapT": 10497
    }
  ],
  "scene": 0,
  "scenes": [
    {
      "name": "Sketchfab_Scene",
      "nodes": [
        0
      ]
    }
  ],
  "textures": [
    {
      "sampler": 0,
      "source": 0
    }
  ]
}
