{
  "accessors": [
    {
      "bufferView": 2,
      "componentType": 5126,
      "count": 2492,
      "max": [
        1.067836046218872,
        1.2594950199127197,
        2.020293951034546
      ],
      "min": [
        -0.5473049879074097,
        0.0037769998889416456,
        1.144345998764038
      ],
      "type": "VEC3"
    },
    {
      "bufferView": 2,
      "byteOffset": 29904,
      "componentType": 5126,
      "count": 2492,
      "max": [
        1.0,
        1.0,
        1.0
      ],
      "min": [
        -1.0,
        -1.0,
        -1.0
      ],
      "type": "VEC3"
    },
    {
      "bufferView": 3,
      "componentType": 5126,
      "count": 2492,
      "max": [
        1.0,
        0.9997905492782593,
        1.0,
        1.0
      ],
      "min": [
        -1.0,
        -0.9993287324905396,
        -1.0,
        -1.0
      ],
      "type": "VEC4"
    },
    {
      "bufferView": 1,
      "componentType": 5126,
      "count": 2492,
      "max": [
        0.9960939884185791,
        0.9273660182952881
      ],
      "min": [
        0.0039059999398887157,
        0.0039059999398887157
      ],
      "type": "VEC2"
    },
    {
      "bufferView": 0,
      "componentType": 5125,
      "count": 12762,
      "type": "SCALAR"
    },
    {
      "bufferView": 2,
      "byteOffset": 59808,
      "componentType": 5126,
      "count": 1331,
      "max": [
        1.8957730531692505,
        2.3108150959014893,
        0.13413900136947632
      ],
      "min": [
        -1.4456650018692017,
        0.16731299459934235,
        -0.30240699648857117
      ],
      "type": "VEC3"
    },
    {
      "bufferView": 2,
      "byteOffset": 75780,
      "componentType": 5126,
      "count": 1331,
      "max": [
        0.9999884963035583,
        1.0,
        1.0
      ],
      "min": [
        -0.9999938607215881,
        -0.9999479055404663,
        -1.0
      ],
      "type": "VEC3"
    },
    {
      "bufferView": 3,
      "byteOffset": 39872,
      "componentType": 5126,
      "count": 1331,
      "max": [
        1.0,
        1.0,
        0.9999461770057678,
        1.0
      ],
      "min": [
        -1.0,
        -1.0,
        -1.0,
        -1.0
      ],
      "type": "VEC4"
    },
    {
      "bufferView": 1,
      "byteOffset": 19936,
      "componentType": 5126,
      "count": 1331,
      "max": [
        0.9960939884185791,
        0.8123419880867004
      ],
      "min": [
        0.0039059999398887157,
        0.0039059999398887157
      ],
      "type": "VEC2"
    },
    {
      "bufferView": 0,
      "byteOffset": 51048,
      "componentType": 5125,
      "count": 5571,
      "type": "SCALAR"
    },
    {
      "bufferView": 2,
      "byteOffset": 91752,
      "componentType": 5126,
      "count": 39384,
      "max": [
        2.098294973373413,
        4.541672229766846,
        0.3320859968662262
      ],
      "min": [
        -1.7104159593582153,
        0.0037769998889416456,
        -3.884697914123535
      ],
      "type": "VEC3"
    },
    {
      "bufferView": 2,
      "byteOffset": 564360,
      "componentType": 5126,
      "count": 39384,
      "max": [
        1.0,
        1.0,
        1.0
      ],
      "min": [
        -1.0,
        -1.0,
        -1.0
      ],
      "type": "VEC3"
    },
    {
      "bufferView": 3,
      "byteOffset": 61168,
      "componentType": 5126,
      "count": 39384,
      "max": [
        1.0,
        1.0,
        1.0,
        1.0
      ],
      "min": [
        -1.0,
        -1.0,
        -1.0,
        -1.0
      ],
      "type": "VEC4"
    },
    {
      "bufferView": 1,
      "byteOffset": 30584,
      "componentType": 5126,
      "count": 39384,
      "max": [
        0.9953420162200928,
        0.9960939884185791
      ],
      "min": [
        0.0039059999398887157,
        0.0039059999398887157
      ],
      "type": "VEC2"
    },
    {
      "bufferView": 0,
      "byteOffset": 73332,
      "componentType": 5125,
      "count": 175872,
      "type": "SCALAR"
    },
    {
      "bufferView": 2,
      "byteOffset": 1036968,
      "componentType": 5126,
      "count": 1344,
      "max": [
        2.0982940196990967,
        2.251866102218628,
        0.31178298592567444
      ],
      "min": [
        -1.654871940612793,
        1.6474839448928833,
        -3.8870460987091064
      ],
      "type": "VEC3"
    },
    {
      "bufferView": 2,
      "byteOffset": 1053096,
      "componentType": 5126,
      "count": 1344,
      "max": [
        0.9821895956993103,
        1.0,
        1.0
      ],
      "min": [
        -0.9821887612342834,
        -1.0,
        -1.0
      ],
      "type": "VEC3"
    },
    {
      "bufferView": 3,
      "byteOffset": 691312,
      "componentType": 5126,
      "count": 1344,
      "max": [
        1.0,
        0.923957884311676,
        1.0,
        1.0
      ],
      "min": [
        -0.9842047095298767,
        -0.9240424036979675,
        -5.137807238497771e-05,
        1.0
      ],
      "type": "VEC4"
    },
    {
      "bufferView": 1,
      "byteOffset": 345656,
      "componentType": 5126,
      "count": 1344,
      "max": [
        0.9960939884185791,
        0.9528440237045288
      ],
      "min": [
        0.0039059999398887157,
        0.0039059999398887157
      ],
      "type": "VEC2"
    },
    {
      "bufferView": 0,
      "byteOffset": 776820,
      "componentType": 5125,
      "count": 5766,
      "type": "SCALAR"
    },
    {
      "bufferView": 2,
      "byteOffset": 1069224,
      "componentType": 5126,
      "count": 49375,
      "max": [
        2.152435064315796,
        4.570241928100586,
        0.8743759989738464
      ],
      "min": [
        -1.760180950164795,
        0.12350799888372421,
        -3.9391019344329834
      ],
      "type": "VEC3"
    },
    {
      "bufferView": 2,
      "byteOffset": 1661724,
      "componentType": 5126,
      "count": 49375,
      "max": [
        1.0,
        1.0,
        1.0
      ],
      "min": [
        -1.0,
        -1.0,
        -1.0
      ],
      "type": "VEC3"
    },
    {
      "bufferView": 1,
      "byteOffset": 356408,
      "componentType": 5126,
      "count": 49375,
      "max": [
        0.996038019657135,
        0.9960939884185791
      ],
      "min": [
        0.0039059999398887157,
        0.0039059999398887157
      ],
      "type": "VEC2"
    },
    {
      "bufferView": 0,
      "byteOffset": 799884,
      "componentType": 5125,
      "count": 225324,
      "type": "SCALAR"
    },
    {
      "bufferView": 2,
      "byteOffset": 2254224,
      "componentType": 5126,
      "count": 49,
      "max": [
        2.1533401012420654,
        2.1579880714416504,
        1.6527199745178223
      ],
      "min": [
        0.11791300028562546,
        0.8745030164718628,
        -0.5124289989471436
      ],
      "type": "VEC3"
    },
    {
      "bufferView": 2,
      "byteOffset": 2254812,
      "componentType": 5126,
      "count": 49,
      "max": [
        1.0,
        0.3472110331058502,
        1.0
      ],
      "min": [
        0.0,
        -0.34720391035079956,
        -0.3472190201282501
      ],
      "type": "VEC3"
    },
    {
      "bufferView": 3,
      "byteOffset": 712816,
      "componentType": 5126,
      "count": 49,
      "max": [
        1.0,
        0.019094053655862808,
        0.0,
        1.0
      ],
      "min": [
        -0.3472086191177368,
        -0.03192601352930069,
        -1.0,
        1.0
      ],
      "type": "VEC4"
    },
    {
      "bufferView": 1,
      "byteOffset": 751408,
      "componentType": 5126,
      "count": 49,
      "max": [
        0.9711329936981201,
        0.9965540170669556
      ],
      "min": [
        0.028867000713944435,
        0.0049430001527071
      ],
      "type": "VEC2"
    },
    {
      "bufferView": 0,
      "byteOffset": 1701180,
      "componentType": 5125,
      "count": 192,
      "type": "SCALAR"
    }
  ],
  "asset": {
    "extras": {
      "author": "Amatsukast (https://sketchfab.com/Amatsukast)",
      "license": "CC-BY-NC-SA-4.0 (http://creativecommons.org/licenses/by-nc-sa/4.0/)",
      "source": "https://sketchfab.com/3d-models/grand-piano-159b0bd1ef114b32888d9d39885cac68",
      "title": "Grand Piano"
    },
    "generator": "Sketchfab-15.27.0",
    "version": "2.0"
  },
  "bufferViews": [
    {
      "buffer": 0,
      "byteLength": 1701948,
      "name": "floatBufferViews",
      "target": 34963
    },
    {
      "buffer": 0,
      "byteLength": 751800,
      "byteOffset": 1701948,
      "byteStride": 8,
      "name": "floatBufferViews",
      "target": 34962
    },
    {
      "buffer": 0,
      "byteLength": 2255400,
      "byteOffset": 2453748,
      "byteStride": 12,
      "name": "floatBufferViews",
      "target": 34962
    },
    {
      "buffer": 0,
      "byteLength": 713600,
      "byteOffset": 4709148,
      "byteStride": 16,
      "name": "floatBufferViews",
      "target": 34962
    }
  ],
  "buffers": [
    {
      "byteLength": 5422748,
      "uri": "scene.bin"
    }
  ],
  "images": [
    {
      "uri": "textures/piano_logo_mt_baseColor.png"
    },
    {
      "uri": "textures/piano_logo_mt_metallicRoughness.png"
    },
    {
      "uri": "textures/piano_logo_mt_normal.png"
    },
    {
      "uri": "textures/piano_velvet_mt_baseColor.png"
    },
    {
      "uri": "textures/piano_velvet_mt_metallicRoughness.png"
    },
    {
      "uri": "textures/piano_velvet_mt_normal.png"
    },
    {
      "uri": "textures/piano_metal_mt_baseColor.png"
    },
    {
      "uri": "textures/piano_metal_mt_metallicRoughness.png"
    },
    {
      "uri": "textures/piano_metal_mt_normal.png"
    },
    {
      "uri": "textures/piano_wood_mt_baseColor.png"
    },
    {
      "uri": "textures/piano_wood_mt_metallicRoughness.png"
    },
    {
      "uri": "textures/piano_wood_mt_normal.png"
    },
    {
      "uri": "textures/piano_body_mt_baseColor.png"
    },
    {
      "uri": "textures/piano_body_mt_metallicRoughness.png"
    },
    {
      "uri": "textures/chair_mt_baseColor.png"
    },
    {
      "uri": "textures/chair_mt_metallicRoughness.png"
    },
    {
      "uri": "textures/chair_mt_normal.png"
    }
  ],
  "materials": [
    {
      "alphaMode": "BLEND",
      "doubleSided": true,
      "name": "piano_logo_mt",
      "normalTexture": {
        "index": 2
      },
      "occlusionTexture": {
        "index": 1
      },
      "pbrMetallicRoughness": {
        "baseColorTexture": {
          "index": 0
        },
        "metallicRoughnessTexture": {
          "index": 1
        }
      }
    },
    {
      "alphaMode": "BLEND",
      "doubleSided": true,
      "name": "piano_velvet_mt",
      "normalTexture": {
        "index": 5
      },
      "occlusionTexture": {
        "index": 4
      },
      "pbrMetallicRoughness": {
        "baseColorTexture": {
          "index": 3
        },
        "metallicRoughnessTexture": {
          "index": 4
        }
      }
    },
    {
      "alphaMode": "BLEND",
      "doubleSided": true,
      "name": "piano_metal_mt",
      "normalTexture": {
        "index": 8
      },
      "occlusionTexture": {
        "index": 7
      },
      "pbrMetallicRoughness": {
        "baseColorTexture": {
          "index": 6
        },
        "metallicRoughnessTexture": {
          "index": 7
        }
      }
    },
    {
      "alphaMode": "BLEND",
      "doubleSided": true,
      "name": "piano_wood_mt",
      "normalTexture": {
        "index": 11
      },
      "occlusionTexture": {
        "index": 10
      },
      "pbrMetallicRoughness": {
        "baseColorTexture": {
          "index": 9
        },
        "metallicRoughnessTexture": {
          "index": 10
        }
      }
    },
    {
      "alphaMode": "BLEND",
      "doubleSided": true,
      "name": "piano_body_mt",
      "occlusionTexture": {
        "index": 13
      },
      "pbrMetallicRoughness": {
        "baseColorTexture": {
          "index": 12
        },
        "metallicFactor": 0.0,
        "metallicRoughnessTexture": {
          "index": 13
        },
        "roughnessFactor": 0.0
      }
    },
    {
      "alphaMode": "BLEND",
      "doubleSided": true,
      "name": "chair_mt",
      "normalTexture": {
        "index": 16
      },
      "occlusionTexture": {
        "index": 15
      },
      "pbrMetallicRoughness": {
        "baseColorTexture": {
          "index": 14
        },
        "metallicRoughnessTexture": {
          "index": 15
        }
      }
    }
  ],
  "meshes": [
    {
      "name": "defaultMaterial",
      "primitives": [
        {
          "attributes": {
            "NORMAL": 1,
            "POSITION": 0,
            "TANGENT": 2,
            "TEXCOORD_0": 3
          },
          "indices": 4,
          "material": 5,
          "mode": 4
        }
      ]
    },
    {
      "name": "defaultMaterial",
      "primitives": [
        {
          "attributes": {
            "NORMAL": 6,
            "POSITION": 5,
            "TANGENT": 7,
            "TEXCOORD_0": 8
          },
          "indices": 9,
          "material": 1,
          "mode": 4
        }
      ]
    },
    {
      "name": "defaultMaterial",
      "primitives": [
        {
          "attributes": {
            "NORMAL": 11,
            "POSITION": 10,
            "TANGENT": 12,
            "TEXCOORD_0": 13
          },
          "indices": 14,
          "material": 2,
          "mode": 4
        }
      ]
    },
    {
      "name": "defaultMaterial",
      "primitives": [
        {
          "attributes": {
            "NORMAL": 16,
            "POSITION": 15,
            "TANGENT": 17,
            "TEXCOORD_0": 18
          },
          "indices": 19,
          "material": 3,
          "mode": 4
        }
      ]
    },
    {
      "name": "defaultMaterial",
      "primitives": [
        {
          "attributes": {
            "NORMAL": 21,
            "POSITION": 20,
            "TEXCOORD_0": 22
          },
          "indices": 23,
          "material": 4,
          "mode": 4
        }
      ]
    },
    {
      "name": "defaultMaterial",
      "primitives": [
        {
          "attributes": {
            "NORMAL": 25,
            "POSITION": 24,
            "TANGENT": 26,
            "TEXCOORD_0": 27
          },
          "indices": 28,
          "material": 0,
          "mode": 4
        }
      ]
    }
  ],
  "nodes": [
    {
      "children": [
        1
      ],
      "matrix": [
        1.0,
        0.0,
        0.0,
        0.0,
        0.0,
        2.220446049250313e-16,
        -1.0,
        0.0,
        0.0,
        1.0,
        2.220446049250313e-16,
        0.0,
        0.0,
        0.0,
        0.0,
        1.0
      ],
      "name": "Sketchfab_model"
    },
    {
      "children": [
        2,
        4,
        9
      ],
      "matrix": [
        1.0,
        0.0,
        0.0,
        0.0,
        0.0,
        -4.371139006309477e-08,
        0.999999999999999,
        0.0,
        0.0,
        -0.999999999999999,
        -4.371139006309477e-08,
        0.0,
        0.0,
        0.0,
        0.0,
        1.0
      ],
      "name": "Collada visual scene group"
    },
    {
      "children": [
        3
      ],
      "name": "chair"
    },
    {
      "mesh": 0,
      "name": "defaultMaterial"
    },
    {
      "children": [
        5,
        6,
        7,
        8
      ],
      "name": "piano"
    },
    {
      "mesh": 1,
      "name": "defaultMaterial"
    },
    {
      "mesh": 2,
      "name": "defaultMaterial"
    },
    {
      "mesh": 3,
      "name": "defaultMaterial"
    },
    {
      "mesh": 4,
      "name": "defaultMaterial"
    },
    {
      "children": [
        10
      ],
      "name": "logo"
    },
    {
      "mesh": 5,
      "name": "defaultMaterial"
    }
  ],
  "samplers": [
    {
      "magFilter": 9729,
      "minFilter": 9987,
      "wrapS": 10497,
      "wrapT": 10497
    }
  ],
  "scene": 0,
  "scenes": [
    {
      "name": "Sketchfab_Scene",
      "nodes": [
        0
      ]
    }
  ],
  "textures": [
    {
      "sampler": 0,
      "source": 0
    },
    {
      "sampler": 0,
      "source": 1
    },
    {
      "sampler": 0,
      "source": 2
    },
    {
      "sampler": 0,
      "source": 3
    },
    {
      "sampler": 0,
      "source": 4
    },
    {
      "sampler": 0,
      "source": 5
    },
    {
      "sampler": 0,
      "source": 6
    },
    {
      "sampler": 0,
      "source": 7
    },
    {
      "sampler": 0,
      "source": 8
    },
    {
      "sampler": 0,
      "source": 9
    },
    {
      "sampler": 0,
      "source": 10
    },
    {
      "sampler": 0,
      "source": 11
    },
    {
      "sampler": 0,
      "source": 12
    },
    {
      "sampler": 0,
      "source": 13
    },
    {
      "sampler": 0,
      "source": 14
    },
    {
      "sampler": 0,
      "source": 15
    },
    {
      "sampler": 0,
      "source": 16
    }
  ]
}
